<svg width="48" height="48" viewBox="0 0 48 48" fill="none" xmlns="http://www.w3.org/2000/svg">
<path d="M25.5013 30.276V18H22.5013V30.276C21.5005 30.6298 20.657 31.3261 20.1198 32.2417C19.5827 33.1573 19.3866 34.2334 19.5661 35.2796C19.7456 36.3258 20.2892 37.2749 21.1008 37.9592C21.9124 38.6434 22.9398 39.0186 24.0013 39.0186C25.0628 39.0186 26.0902 38.6434 26.9018 37.9592C27.7134 37.2749 28.257 36.3258 28.4365 35.2796C28.616 34.2334 28.4199 33.1573 27.8827 32.2417C27.3456 31.3261 26.5021 30.6298 25.5013 30.276Z" fill="url(#paint0_linear_10_4)"/>
<path d="M24.0013 45C21.9343 45.0023 19.9126 44.3939 18.1902 43.2511C16.4678 42.1083 15.1214 40.4821 14.3202 38.5767C13.5189 36.6713 13.2985 34.5716 13.6865 32.5413C14.0746 30.511 15.0538 28.6406 16.5013 27.165V10.5C16.5013 8.51088 17.2915 6.60322 18.698 5.1967C20.1045 3.79018 22.0122 3 24.0013 3C25.9904 3 27.8981 3.79018 29.3046 5.1967C30.7111 6.60322 31.5013 8.51088 31.5013 10.5V27.165C32.9488 28.6406 33.928 30.511 34.3161 32.5413C34.7042 34.5716 34.4837 36.6713 33.6824 38.5767C32.8812 40.4821 31.5348 42.1083 29.8124 43.2511C28.09 44.3939 26.0683 45.0023 24.0013 45ZM24.0013 6C22.8082 6.00119 21.6643 6.47568 20.8206 7.31934C19.977 8.16299 19.5025 9.30689 19.5013 10.5V28.4745L19.0033 28.923C17.8706 29.9354 17.0721 31.2679 16.7134 32.7441C16.3547 34.2203 16.4527 35.7706 16.9945 37.1899C17.5364 38.6091 18.4964 39.8304 19.7476 40.692C20.9988 41.5536 22.4821 42.015 24.0013 42.015C25.5205 42.015 27.0038 41.5536 28.255 40.692C29.5062 39.8304 30.4663 38.6091 31.0081 37.1899C31.5499 35.7706 31.6479 34.2203 31.2892 32.7441C30.9305 31.2679 30.132 29.9354 28.9993 28.923L28.5013 28.4745V10.5C28.5001 9.30689 28.0256 8.16299 27.182 7.31934C26.3383 6.47568 25.1944 6.00119 24.0013 6Z" fill="url(#paint1_linear_10_4)"/>
<defs>
<linearGradient id="paint0_linear_10_4" x1="24.0013" y1="18" x2="24.0013" y2="39.0186" gradientUnits="userSpaceOnUse">
<stop stop-color="#6689EE"/>
<stop offset="1" stop-color="#F7585D"/>
</linearGradient>
<linearGradient id="paint1_linear_10_4" x1="24.0013" y1="3" x2="24.0013" y2="45" gradientUnits="userSpaceOnUse">
<stop stop-color="#FD5656"/>
<stop offset="0.718351" stop-color="#7E7BCF" stop-opacity="0.964082"/>
<stop offset="1" stop-color="#4C89FF" stop-opacity="0.95"/>
</linearGradient>
</defs>
</svg>
