<svg width="24" height="24" viewBox="0 0 24 24" fill="none" xmlns="http://www.w3.org/2000/svg">
<path d="M12 22C9.71667 22 7.81267 21.2167 6.288 19.65C4.76333 18.0833 4.00067 16.1333 4 13.8C4 12.7667 4.23333 11.7333 4.7 10.7C5.16667 9.66667 5.75 8.675 6.45 7.725C7.15 6.775 7.90833 5.88333 8.725 5.05C9.54167 4.21667 10.3 3.49167 11 2.875C11.1333 2.74167 11.2877 2.646 11.463 2.588C11.6383 2.53 11.8173 2.50067 12 2.5C12.1833 2.5 12.3627 2.52933 12.538 2.588C12.7133 2.64667 12.8673 2.74233 13 2.875C13.7 3.49167 14.4583 4.21667 15.275 5.05C16.0917 5.88333 16.85 6.775 17.55 7.725C18.25 8.675 18.8333 9.66667 19.3 10.7C19.7667 11.7333 20 12.7667 20 13.8C20 16.1333 19.2377 18.0833 17.713 19.65C16.1883 21.2167 14.284 22 12 22ZM14.5 18C14.9167 18 15.271 17.8543 15.563 17.563C15.855 17.2717 16.0007 16.9173 16 16.5C16 16.0833 15.8543 15.7293 15.563 15.438C15.2717 15.1467 14.9173 15.0007 14.5 15C14.0833 15 13.7293 15.146 13.438 15.438C13.1467 15.73 13.0007 16.084 13 16.5C13 16.9167 13.146 17.271 13.438 17.563C13.73 17.855 14.084 18.0007 14.5 18ZM8.75 17.25C8.95 17.45 9.18333 17.55 9.45 17.55C9.71667 17.55 9.95 17.45 10.15 17.25L15.25 12.15C15.45 11.95 15.55 11.7167 15.55 11.45C15.55 11.1833 15.45 10.95 15.25 10.75C15.05 10.55 14.8127 10.45 14.538 10.45C14.2633 10.45 14.0257 10.55 13.825 10.75L8.75 15.825C8.55 16.025 8.45 16.2627 8.45 16.538C8.45 16.8133 8.55 17.0507 8.75 17.25ZM9.5 13C9.91667 13 10.271 12.8543 10.563 12.563C10.855 12.2717 11.0007 11.9173 11 11.5C11 11.0833 10.8543 10.7293 10.563 10.438C10.2717 10.1467 9.91733 10.0007 9.5 10C9.08333 10 8.72933 10.146 8.438 10.438C8.14667 10.73 8.00067 11.084 8 11.5C8 11.9167 8.146 12.271 8.438 12.563C8.73 12.855 9.084 13.0007 9.5 13Z" fill="url(#paint0_linear_5_14)"/>
<defs>
<linearGradient id="paint0_linear_5_14" x1="12" y1="2.5" x2="12" y2="23.5" gradientUnits="userSpaceOnUse">
<stop offset="0.177213" stop-color="#FFD8D8"/>
<stop offset="1" stop-color="#F4B824"/>
</linearGradient>
</defs>
</svg>
