<svg width="48" height="48" viewBox="0 0 48 48" fill="none" xmlns="http://www.w3.org/2000/svg">
<path fill-rule="evenodd" clip-rule="evenodd" d="M18.6455 11C15.6079 11 13.1455 13.4624 13.1455 16.5C13.1455 17.2256 13.286 17.9183 13.5412 18.5525L12.2004 18.5037C9.16489 18.393 6.61436 20.764 6.50366 23.7996C6.41119 26.3353 8.05054 28.5326 10.3624 29.252C9.55758 30.2085 9.07274 31.4431 9.07274 32.7909C9.07274 35.8285 11.5352 38.2909 14.5727 38.2909L36.1 38.2909C39.1376 38.2909 41.6 35.8285 41.6 32.7909C41.6 29.7533 39.1376 27.2909 36.1 27.2909H34.5234C34.9234 26.5628 35.164 25.7327 35.1964 24.8459C35.3071 21.8103 32.936 19.2598 29.9004 19.1491L28.7263 19.1063C29.1445 18.3306 29.3818 17.443 29.3818 16.5C29.3818 13.4624 26.9194 11 23.8818 11H18.6455Z" fill="#FFFBFB"/>
</svg>
