<svg width="48" height="48" viewBox="0 0 48 48" fill="none" xmlns="http://www.w3.org/2000/svg">
<path d="M18.3641 26.4501C18.6319 25.1022 19.3835 23.9033 20.4732 23.0861C21.5629 22.2688 22.9129 21.8914 24.2613 22.0271C25.6097 22.1628 26.8604 22.8019 27.7706 23.8205C28.6809 24.839 29.1858 26.1644 29.1875 27.5394C29.1875 29.0113 28.6114 30.423 27.5858 31.4639C26.5603 32.5049 25.1693 33.0899 23.7188 33.0904H13.1719C12.8611 33.0904 12.563 32.9651 12.3432 32.7421C12.1235 32.519 12 32.2166 12 31.9012C12 31.5858 12.1235 31.2833 12.3432 31.0603C12.563 30.8373 12.8611 30.712 13.1719 30.712H23.7188C24.5305 30.6864 25.3005 30.3413 25.8659 29.7497C26.4313 29.1582 26.7476 28.3666 26.7481 27.5425C26.7485 26.7184 26.4329 25.9265 25.8681 25.3344C25.3033 24.7422 24.5336 24.3963 23.7219 24.3699C22.2344 24.3699 20.9531 25.4354 20.6625 26.9163L20.5703 27.3776C20.5005 27.6777 20.3186 27.9385 20.0629 28.1051C19.8073 28.2717 19.4979 28.331 19.2 28.2705C18.902 28.21 18.6389 28.0345 18.4661 27.781C18.2932 27.5275 18.2241 27.2157 18.2734 26.9115L18.3641 26.4501ZM29.75 32.0661C30.1362 31.2847 30.7709 30.6583 31.5514 30.2882C32.3319 29.9181 33.2127 29.8261 34.0511 30.0269C34.8896 30.2276 35.6368 30.7096 36.172 31.3947C36.7071 32.0798 36.9988 32.9281 37 33.8023V33.8831C37 34.9344 36.5884 35.9426 35.8559 36.686C35.1233 37.4294 34.1298 37.847 33.0938 37.847H31.6625C31.8846 38.4187 31.9656 39.0368 31.8984 39.6475C31.8313 40.2582 31.6181 40.843 31.2774 41.351C30.9366 41.859 30.4787 42.2748 29.9435 42.5622C29.4082 42.8496 28.8118 42.9999 28.2062 43C27.5947 43.0002 26.9926 42.8475 26.453 42.5555C25.9134 42.2635 25.453 41.8411 25.1125 41.3257L25.0891 41.2876C24.9981 41.1581 24.9336 41.0113 24.8996 40.856C24.8655 40.7007 24.8625 40.5401 24.8907 40.3836C24.9189 40.2271 24.9777 40.0779 25.0638 39.9449C25.1498 39.8119 25.2613 39.6978 25.3916 39.6093C25.5219 39.5208 25.6683 39.4597 25.8223 39.4297C25.9763 39.3997 26.1346 39.4013 26.2879 39.4345C26.4412 39.4677 26.5865 39.5318 26.7149 39.623C26.8434 39.7141 26.9526 39.8305 27.0359 39.9653L27.0609 40.0033C27.3156 40.3886 27.7469 40.6217 28.2062 40.6217C28.3858 40.622 28.5636 40.5864 28.7296 40.517C28.8956 40.4476 29.0465 40.3456 29.1737 40.217C29.3009 40.0884 29.4018 39.9357 29.4708 39.7674C29.5398 39.5992 29.5755 39.4189 29.5758 39.2367C29.5761 39.0545 29.541 38.8741 29.4726 38.7056C29.4042 38.5372 29.3037 38.3841 29.177 38.255C29.0503 38.126 28.8997 38.0235 28.734 37.9535C28.5682 37.8835 28.3905 37.8473 28.2109 37.847H13.1719C12.8611 37.847 12.563 37.7217 12.3432 37.4987C12.1235 37.2757 12 36.9732 12 36.6578C12 36.3424 12.1235 36.04 12.3432 35.817C12.563 35.594 12.8611 35.4687 13.1719 35.4687H33.0938C33.5082 35.4687 33.9056 35.3016 34.1986 35.0043C34.4916 34.7069 34.6562 34.3036 34.6562 33.8831V33.8038C34.6558 33.4649 34.5427 33.136 34.3353 32.8704C34.1279 32.6048 33.8382 32.4179 33.5132 32.3399C33.1881 32.262 32.8466 32.2976 32.544 32.441C32.2413 32.5843 31.9952 32.8271 31.8453 33.13L31.7984 33.2251C31.7304 33.3661 31.6356 33.492 31.5194 33.5956C31.4032 33.6992 31.268 33.7784 31.1215 33.8287C30.975 33.879 30.8201 33.8993 30.6658 33.8886C30.5115 33.8779 30.3608 33.8363 30.2225 33.7662C30.0841 33.6961 29.9608 33.5989 29.8596 33.4802C29.7584 33.3615 29.6814 33.2236 29.633 33.0746C29.5846 32.9255 29.5657 32.7682 29.5775 32.6117C29.5892 32.4552 29.6314 32.3027 29.7016 32.1628L29.75 32.0661Z" fill="url(#paint0_linear_10_9)"/>
<path d="M24 17.4167L18.5 11.9167M24 17.4167L29.5 11.9167M24 17.4167L24 4.58334" stroke="url(#paint1_linear_10_9)" stroke-width="2" stroke-linecap="round" stroke-linejoin="round"/>
<defs>
<linearGradient id="paint0_linear_10_9" x1="29.1875" y1="42.6036" x2="26.7749" y2="20.4135" gradientUnits="userSpaceOnUse">
<stop stop-color="#D9A5D7"/>
<stop offset="0.458938" stop-color="#F185F3"/>
<stop offset="1" stop-color="white"/>
</linearGradient>
<linearGradient id="paint1_linear_10_9" x1="24" y1="17.4167" x2="24" y2="4.58334" gradientUnits="userSpaceOnUse">
<stop stop-color="#FF8515"/>
<stop offset="1" stop-color="#FFB423" stop-opacity="0"/>
</linearGradient>
</defs>
</svg>
