<svg width="24" height="24" viewBox="0 0 24 24" fill="none" xmlns="http://www.w3.org/2000/svg">
<path d="M7.28762 6.9744C7.4933 5.95427 8.07057 5.04691 8.90745 4.42837C9.74432 3.80982 10.7811 3.52419 11.8167 3.62689C12.8523 3.7296 13.8128 4.21332 14.5119 4.98419C15.2109 5.75507 15.5987 6.75815 15.6 7.7988C15.6 8.91282 15.1576 9.98123 14.3699 10.7691C13.5823 11.5569 12.514 11.9997 11.4 12H3.30002C3.06133 12 2.83241 11.9052 2.66363 11.7364C2.49485 11.5676 2.40002 11.3387 2.40002 11.1C2.40002 10.8613 2.49485 10.6324 2.66363 10.4636C2.83241 10.2948 3.06133 10.2 3.30002 10.2H11.4C12.0234 10.1806 12.6148 9.9194 13.049 9.47168C13.4832 9.02396 13.7262 8.42486 13.7265 7.80116C13.7268 7.17747 13.4845 6.57812 13.0507 6.12997C12.6169 5.68181 12.0258 5.42002 11.4024 5.4C10.26 5.4 9.27602 6.2064 9.05282 7.3272L8.98202 7.6764C8.92842 7.90349 8.78871 8.10089 8.59237 8.22696C8.39603 8.35303 8.1584 8.39791 7.92959 8.35215C7.70079 8.30639 7.49871 8.17356 7.36595 7.98167C7.2332 7.78978 7.18016 7.55384 7.21802 7.3236L7.28762 6.9744ZM16.032 11.2248C16.3286 10.6334 16.8161 10.1593 17.4155 9.87922C18.015 9.59915 18.6913 9.52946 19.3353 9.68143C19.9792 9.83339 20.5531 10.1981 20.9641 10.7166C21.3751 11.2352 21.5991 11.8772 21.6 12.5388V12.6C21.6 13.3956 21.284 14.1587 20.7213 14.7213C20.1587 15.2839 19.3957 15.6 18.6 15.6H17.5008C17.6714 16.0327 17.7336 16.5005 17.682 16.9627C17.6305 17.4249 17.4667 17.8675 17.205 18.252C16.9434 18.6365 16.5917 18.9512 16.1806 19.1687C15.7695 19.3862 15.3115 19.4999 14.8464 19.5C14.3768 19.5001 13.9143 19.3846 13.4999 19.1636C13.0855 18.9426 12.732 18.6229 12.4704 18.2328L12.4524 18.204C12.3825 18.1059 12.3331 17.9949 12.3069 17.8773C12.2807 17.7598 12.2784 17.6382 12.3001 17.5198C12.3217 17.4013 12.3669 17.2884 12.433 17.1878C12.4991 17.0871 12.5847 17.0008 12.6848 16.9338C12.7848 16.8668 12.8973 16.8206 13.0155 16.7979C13.1338 16.7752 13.2554 16.7764 13.3731 16.8015C13.4909 16.8266 13.6024 16.8751 13.7011 16.9441C13.7998 17.0131 13.8836 17.1012 13.9476 17.2032L13.9668 17.232C14.1624 17.5236 14.4936 17.7 14.8464 17.7C14.9843 17.7002 15.1209 17.6733 15.2484 17.6208C15.3759 17.5682 15.4917 17.4911 15.5894 17.3937C15.6871 17.2964 15.7646 17.1808 15.8176 17.0535C15.8706 16.9262 15.898 16.7897 15.8982 16.6518C15.8985 16.5139 15.8715 16.3773 15.819 16.2498C15.7664 16.1224 15.6893 16.0065 15.592 15.9088C15.4946 15.8111 15.379 15.7336 15.2517 15.6806C15.1244 15.6276 14.9879 15.6002 14.85 15.6H3.30002C3.06133 15.6 2.83241 15.5052 2.66363 15.3364C2.49485 15.1676 2.40002 14.9387 2.40002 14.7C2.40002 14.4613 2.49485 14.2324 2.66363 14.0636C2.83241 13.8948 3.06133 13.8 3.30002 13.8H18.6C18.9183 13.8 19.2235 13.6736 19.4486 13.4485C19.6736 13.2235 19.8 12.9183 19.8 12.6V12.54C19.7997 12.2835 19.7128 12.0346 19.5535 11.8335C19.3942 11.6325 19.1718 11.491 18.9221 11.432C18.6725 11.3731 18.4102 11.4 18.1778 11.5085C17.9454 11.617 17.7563 11.8008 17.6412 12.03L17.6052 12.102C17.553 12.2087 17.4802 12.304 17.3909 12.3824C17.3017 12.4608 17.1978 12.5207 17.0853 12.5588C16.9728 12.5969 16.8539 12.6123 16.7354 12.6042C16.6169 12.596 16.5012 12.5645 16.3949 12.5115C16.2886 12.4584 16.1939 12.3849 16.1162 12.295C16.0385 12.2052 15.9793 12.1009 15.9422 11.9881C15.905 11.8752 15.8905 11.7562 15.8995 11.6378C15.9086 11.5193 15.9409 11.4039 15.9948 11.298L16.032 11.2248Z" fill="url(#paint0_linear_5_10)"/>
<defs>
<linearGradient id="paint0_linear_5_10" x1="15.6" y1="19.2" x2="13.8" y2="2.4" gradientUnits="userSpaceOnUse">
<stop stop-color="#D9A5D7"/>
<stop offset="0.458938" stop-color="#F185F3"/>
<stop offset="1" stop-color="white"/>
</linearGradient>
</defs>
</svg>
